<?xml version="1.0" standalone="no"?>
<!DOCTYPE svg PUBLIC "-//W3C//DTD SVG 20010904//EN"
 "http://www.w3.org/TR/2001/REC-SVG-20010904/DTD/svg10.dtd">
<svg version="1.0" xmlns="http://www.w3.org/2000/svg"
 width="1830.000000pt" height="1830.000000pt" viewBox="0 0 1830.000000 1830.000000"
 preserveAspectRatio="xMidYMid meet">
<metadata>
Created by potrace 1.14, written by Peter Selinger 2001-2017
</metadata>
<g transform="translate(0.000000,1830.000000) scale(0.100000,-0.100000)"
fill="#000000" stroke="none">
<path d="M8213 9535 l2 -8317 100 -52 c377 -197 497 -257 502 -252 4 3 6 3395
6 7537 l0 7530 47 -48 c94 -97 260 -252 406 -378 49 -42 101 -87 115 -100 189
-165 579 -456 869 -648 47 -32 90 -60 95 -65 6 -4 71 -45 145 -91 74 -46 146
-91 160 -101 112 -76 673 -382 950 -517 165 -81 218 -106 405 -190 55 -25 120
-54 145 -65 25 -12 115 -50 200 -85 85 -35 164 -68 175 -73 183 -85 1280 -463
1439 -496 11 -2 40 -10 65 -18 25 -9 73 -23 106 -32 33 -9 110 -29 170 -46
102 -27 164 -42 225 -53 14 -3 84 -16 155 -31 72 -14 144 -28 160 -31 17 -2
84 -15 150 -28 66 -14 138 -27 160 -31 22 -3 41 -7 43 -9 5 -4 21 -114 27
-186 5 -53 17 -162 20 -179 3 -16 17 -132 20 -165 10 -108 18 -181 20 -185 2
-3 7 -46 10 -95 4 -50 9 -101 11 -115 22 -173 22 -1191 0 -1330 -3 -14 -7 -74
-11 -135 -3 -60 -8 -123 -10 -140 -2 -16 -6 -61 -9 -100 -16 -176 -17 -188
-36 -335 -5 -41 -12 -102 -16 -135 -3 -33 -7 -67 -9 -75 -3 -17 -15 -92 -20
-130 -7 -48 -57 -355 -61 -375 -2 -11 -7 -33 -10 -50 -11 -67 -56 -284 -69
-340 -8 -33 -17 -76 -20 -95 -3 -19 -10 -48 -15 -65 -5 -16 -11 -41 -14 -55
-13 -76 -102 -411 -158 -594 -16 -54 -31 -106 -33 -115 -7 -34 -145 -443 -200
-591 -32 -85 -93 -240 -136 -345 -77 -189 -99 -240 -158 -367 -17 -38 -45 -98
-62 -135 -49 -108 -204 -413 -238 -471 -17 -29 -31 -55 -31 -58 0 -3 -23 -44
-50 -91 -28 -47 -50 -87 -50 -89 0 -6 -196 -329 -263 -434 -61 -95 -185 -279
-239 -355 -16 -22 -36 -51 -46 -65 -24 -36 -255 -344 -262 -350 -3 -3 -30 -36
-60 -75 -30 -38 -59 -75 -65 -81 -5 -6 -28 -32 -50 -59 -255 -312 -571 -640
-985 -1025 -80 -74 -383 -329 -540 -453 -201 -160 -734 -537 -757 -537 -4 0
-14 -7 -23 -15 -22 -20 -240 -155 -250 -155 -5 0 -10 -3 -12 -8 -3 -7 -124
-80 -250 -151 l-58 -32 0 5530 c0 3042 4 5531 8 5531 4 0 12 -4 18 -9 5 -5 43
-26 84 -48 41 -22 95 -52 120 -65 38 -22 585 -325 720 -400 25 -14 173 -96
330 -183 157 -87 305 -169 330 -183 25 -14 70 -39 100 -55 30 -16 60 -33 65
-37 6 -4 55 -31 110 -60 55 -29 105 -56 110 -60 6 -4 35 -21 65 -38 381 -208
687 -383 740 -420 282 -198 486 -465 602 -789 32 -91 32 -91 59 -218 30 -145
33 -235 33 -1130 0 -779 -3 -966 -19 -1050 -19 -104 -30 -150 -57 -235 -170
-536 -615 -952 -1158 -1082 -47 -11 -101 -22 -120 -25 -19 -2 -46 -7 -60 -10
-14 -2 -332 -6 -706 -7 -375 -2 -685 -6 -690 -9 -7 -4 -11 -558 -5 -597 1 -3
313 -5 694 -4 765 2 790 3 1040 63 95 23 223 63 274 86 17 8 34 15 39 15 16 0
242 115 317 162 84 51 237 164 297 217 140 125 288 293 380 431 24 36 52 77
62 93 86 126 229 476 262 641 20 97 27 138 32 181 4 28 8 52 9 55 13 22 18
335 18 1087 0 785 -4 993 -18 1088 -22 140 -36 207 -70 325 -166 577 -548
1053 -1075 1342 -69 37 -85 46 -300 166 -74 41 -160 88 -190 105 -30 17 -69
38 -87 48 -18 10 -63 35 -100 55 -37 20 -72 40 -78 44 -5 4 -46 27 -90 50 -44
24 -172 95 -285 158 -113 63 -234 130 -270 150 -36 19 -81 44 -100 55 -19 11
-57 32 -85 47 -41 23 -236 130 -455 252 -25 14 -72 40 -105 58 -33 18 -76 42
-95 53 -62 35 -1114 618 -1200 665 -25 13 -60 33 -77 44 l-33 20 0 -6551 c0
-3603 3 -6551 6 -6551 25 0 805 406 963 502 34 21 65 38 68 38 2 0 29 16 59
35 30 19 56 35 58 35 5 0 223 134 321 198 276 179 405 269 620 428 134 99 179
134 305 232 47 37 258 210 295 243 164 144 217 190 259 229 175 159 476 458
616 610 52 57 108 118 123 134 16 17 52 58 80 91 29 33 68 78 87 100 20 22 67
78 105 125 39 47 74 90 80 96 5 6 46 56 89 112 l79 102 2329 0 2328 0 0 304 0
305 -2105 -1 c-1158 -1 -2107 1 -2109 3 -2 2 25 49 60 104 55 86 119 189 211
343 121 200 357 650 488 927 60 128 217 493 262 610 62 160 164 438 186 508
l22 67 80 1 c44 0 709 0 1478 1 1086 0 1401 -3 1412 -12 13 -11 15 27 15 304
l0 316 -1398 0 -1398 0 67 268 c61 241 170 754 184 857 2 22 7 51 10 65 12 60
15 77 20 115 3 23 7 50 9 60 2 11 7 45 11 75 4 30 9 64 11 75 2 10 6 37 9 60
5 36 9 68 20 145 2 14 7 54 10 90 4 36 8 72 10 81 2 8 6 49 10 90 3 41 8 88
10 104 4 31 9 78 21 220 3 44 10 82 14 85 5 3 542 5 1194 5 l1186 0 0 305 0
305 -1171 0 c-644 0 -1174 2 -1178 5 -4 3 -7 122 -8 265 0 228 -9 573 -17 660
-2 17 -6 66 -10 110 -7 83 -8 93 -25 235 -11 95 -19 157 -26 228 -3 26 -7 63
-10 82 -2 19 -7 60 -10 90 -4 30 -8 66 -10 80 -2 14 -11 88 -19 165 -14 127
-19 168 -31 260 -2 17 -7 62 -11 101 l-6 72 -42 7 c-22 5 -43 9 -46 9 -3 1
-23 5 -45 9 -221 42 -483 93 -585 114 -69 14 -136 26 -150 28 -14 2 -59 10
-100 19 -41 8 -91 18 -110 21 -19 3 -42 8 -50 10 -8 2 -26 6 -40 9 -29 5 -487
132 -545 151 -22 7 -56 18 -75 23 -337 94 -995 332 -1450 524 -179 76 -204 87
-359 160 -57 26 -105 48 -108 48 -6 0 -489 242 -534 268 -33 18 -53 29 -99 53
-285 147 -771 452 -1129 707 -70 50 -360 271 -371 282 -3 3 -27 24 -55 45 -27
22 -52 42 -55 45 -3 3 -50 43 -105 90 -260 221 -580 542 -772 775 -54 66 -162
210 -178 237 -10 18 -271 429 -370 583 -28 44 -76 118 -105 165 -29 47 -59 91
-66 99 -10 11 -12 -1634 -11 -8304z"/>
<path d="M7335 15293 c-480 -366 -809 -588 -1150 -778 -181 -101 -253 -138
-440 -229 -310 -152 -460 -216 -769 -332 -162 -61 -494 -172 -566 -189 -8 -2
-73 -20 -145 -39 -71 -20 -139 -38 -150 -41 -11 -2 -29 -6 -40 -9 -64 -16
-339 -77 -372 -82 -21 -3 -41 -8 -44 -9 -3 -2 -28 -7 -55 -11 -27 -3 -52 -8
-55 -10 -3 -2 -21 -6 -40 -9 -38 -6 -344 -66 -489 -95 -52 -11 -113 -22 -135
-25 -22 -4 -48 -8 -57 -11 -10 -3 -30 -7 -45 -10 -16 -3 -60 -11 -100 -19 -39
-8 -87 -17 -105 -20 -68 -11 -91 -21 -94 -40 -2 -11 -6 -47 -10 -80 -3 -33 -7
-67 -9 -75 -1 -8 -6 -46 -9 -85 -4 -38 -9 -81 -11 -95 -2 -14 -6 -52 -10 -85
-3 -33 -8 -71 -10 -85 -2 -14 -9 -70 -15 -125 -17 -160 -22 -197 -25 -214 -2
-9 -6 -48 -10 -86 -3 -39 -8 -81 -10 -95 -2 -14 -7 -54 -11 -90 -4 -36 -8 -76
-10 -90 -2 -14 -6 -63 -10 -110 -3 -47 -8 -105 -10 -130 -5 -71 -16 -497 -18
-700 l-1 -185 -1150 0 -1150 0 -3 -305 -2 -305 1170 0 c1164 0 1170 0 1171
-20 0 -11 2 -31 4 -45 1 -14 6 -63 9 -110 3 -47 8 -98 10 -115 2 -16 7 -61 11
-100 3 -38 8 -83 10 -100 5 -35 14 -112 21 -175 2 -25 6 -54 8 -65 4 -20 13
-89 21 -153 2 -18 6 -45 9 -60 3 -15 8 -45 11 -67 6 -45 23 -150 29 -180 8
-44 18 -101 22 -125 27 -156 87 -450 120 -589 9 -36 17 -72 19 -80 2 -9 8 -36
15 -61 7 -25 13 -52 15 -60 8 -41 60 -236 86 -326 16 -56 29 -109 29 -117 0
-13 -161 -15 -1383 -15 -760 -1 -1388 -1 -1395 -1 -10 -1 -12 -65 -10 -303 l3
-303 1452 0 1453 0 1 25 c1 14 1 66 1 115 l-1 90 36 -100 c145 -412 236 -645
398 -1015 44 -100 297 -614 353 -715 121 -220 275 -483 366 -625 13 -19 39
-61 59 -92 21 -31 39 -62 42 -70 4 -11 -350 -13 -2080 -12 l-2085 1 0 -303 0
-304 2303 0 2304 0 130 -162 c299 -373 576 -677 930 -1018 121 -117 167 -160
308 -285 43 -38 83 -74 89 -80 43 -39 157 -134 246 -205 58 -47 111 -90 118
-97 20 -20 430 -326 512 -383 76 -53 396 -265 640 -425 74 -48 142 -90 150
-92 13 -4 15 367 15 3296 0 2926 -2 3300 -15 3304 -8 3 -143 50 -300 105 -157
55 -340 119 -407 142 -68 23 -123 45 -123 49 0 3 147 91 326 196 179 104 333
195 342 201 16 12 17 249 17 3358 0 2228 -3 3346 -10 3345 -5 0 -113 -79 -240
-176z m-358 -3596 l0 -2573 -145 -85 c-79 -46 -161 -94 -181 -106 -20 -13 -45
-27 -56 -33 -11 -5 -38 -21 -60 -34 -22 -14 -51 -31 -65 -39 -33 -18 -107 -62
-320 -187 -213 -124 -187 -109 -455 -265 -121 -70 -226 -133 -233 -140 -11
-10 4 -18 75 -43 561 -195 1089 -379 1419 -493 l181 -63 0 -2518 0 -2517 -31
21 c-115 81 -470 365 -646 517 -214 186 -614 574 -795 771 -101 110 -238 268
-310 354 -22 27 -47 57 -57 68 -9 10 -30 36 -46 56 -16 20 -51 63 -77 95 -158
197 -529 725 -628 894 -18 30 -39 65 -47 78 -156 246 -446 790 -568 1065 -199
447 -282 662 -427 1095 -131 390 -246 813 -326 1195 -27 130 -79 397 -85 440
-2 19 -7 46 -10 60 -6 25 -12 66 -34 210 -6 41 -12 86 -15 100 -3 23 -18 135
-30 233 -3 20 -7 56 -10 80 -11 84 -14 113 -20 182 -3 39 -8 86 -10 105 -5 52
-14 163 -20 260 -3 47 -8 105 -10 130 -23 250 -23 1040 0 1290 2 25 7 79 10
120 3 41 8 82 10 90 2 8 7 49 10 90 4 41 8 82 10 90 2 8 6 49 10 90 4 41 9 83
10 92 2 9 7 48 10 85 4 37 8 75 10 83 4 16 16 127 19 170 1 33 6 35 106 54 47
9 96 18 110 21 14 3 36 8 50 10 35 5 420 80 570 111 1053 217 2110 641 2980
1198 63 40 118 72 121 70 3 -2 6 -1162 6 -2577z"/>
</g>
</svg>
